<?xml version="1.0" encoding="utf-8"?>
<!-- Generator: Adobe Illustrator 24.2.0, SVG Export Plug-In . SVG Version: 6.00 Build 0)  -->
<svg version="1.1" id="Layer_1" xmlns="http://www.w3.org/2000/svg" xmlns:xlink="http://www.w3.org/1999/xlink" x="0px" y="0px"
	 viewBox="0 0 100 20" style="enable-background:new 0 0 100 20;" xml:space="preserve">
<g>
	<path d="M0,20V0h0.7v20H0z M1.5,20V0H3v20H1.5z M4.6,20V0h2.4v20H4.6z"/>
	<path d="M8.4,20V0h3.1v20H8.4z M12.3,20V0h2.4v20H12.3z M15.4,20V0h0.7v20H15.4z"/>
	<path d="M16.9,20V0h1.5v20H16.9z M21.6,20V0h0.7v20H21.6z M23.8,20V0h0.7v20H23.8z"/>
	<path d="M25.4,20V0h0.7v20H25.4z M29.3,20V0h1.5v20H29.3z M32.3,20V0h0.9v20H32.3z"/>
	<path d="M33.9,20V0h0.7v20H33.9z M36.1,20V0h1.5v20H36.1z M40.8,20V0h0.7v20H40.8z"/>
	<path d="M42.3,20V0h0.7v20H42.3z M44.7,20V0h1.5v20H44.7z M46.9,20V0h0.7v20H46.9z"/>
	<path d="M50.7,20V0h0.7v20H50.7z M52.4,20V0h1.5v20H52.4z M56.9,20V0h0.7v20H56.9z"/>
	<path d="M59.2,20V0h0.7v20H59.2z M63,20V0h0.7v20H63z M65.4,20V0h1.5v20H65.4z"/>
	<path d="M67.7,20V0h0.7v20H67.7z M69.2,20V0h3.1v20H69.2z M73.8,20V0h0.7v20H73.8z"/>
	<path d="M76.2,20V0h2.4v20H76.2z M79.3,20V0h1.5v20H79.3z M81.5,20V0h2.4v20H81.5z"/>
	<path d="M84.6,20V0h0.7v20H84.6z M87,20V0h2.4v20H87z M90.8,20V0h1.5v20H90.8z"/>
	<path d="M93.1,20V0h1.5v20H93.1z M95.4,20V0h2.4v20H95.4z M99.3,20V0h0.7v20H99.3z"/>
</g>
</svg>
