<?xml version="1.0" encoding="utf-8"?>
<!-- Generator: Adobe Illustrator 24.2.0, SVG Export Plug-In . SVG Version: 6.00 Build 0)  -->
<svg version="1.1" id="Layer_1" xmlns="http://www.w3.org/2000/svg" xmlns:xlink="http://www.w3.org/1999/xlink" x="0px" y="0px"
	 viewBox="0 0 309.6 367.5" style="enable-background:new 0 0 309.6 367.5;" xml:space="preserve">
<path d="M299.6,312.5c-5.5,0-10,4.5-10,10v26h-244c-14.9,0-27-12.1-27-27v0c0-16.6,13.4-30,30-30h252c5-2.4,8.5-7.5,8.5-13.5V15
	c0-8.3-6.7-15-15-15h-249c-24.9,0-45,20.1-45,45v247.5H0v36.3c3.1,21.9,21.8,38.7,44.6,38.7h250c8.3,0,15-6.7,15-15v-4v-26
	C309.6,317,305.1,312.5,299.6,312.5z M52.6,46.5c0-5.5,4.5-10,10-10h1c5.5,0,10,4.5,10,10v198c0,5.5-4.5,10-10,10h-1
	c-5.5,0-10-4.5-10-10V46.5z"/>
</svg>
