<svg id="Layer_1" data-name="Layer 1" xmlns="http://www.w3.org/2000/svg" viewBox="0 0 300 168"><defs><style>.cls-1{fill:#fff;}</style></defs><polygon class="cls-1" points="77.37 168 19.63 168 0 134 0 34 77.37 168"/><polygon class="cls-1" points="152.37 168 94.63 168 0 4.1 0 0 55.37 0 152.37 168"/><polygon class="cls-1" points="227.37 168 169.63 168 72.63 0 130.37 0 227.37 168"/><polygon class="cls-1" points="300 163.9 300 168 244.63 168 147.63 0 205.37 0 300 163.9"/><polygon class="cls-1" points="300 34 300 134 222.63 0 280.37 0 300 34"/><polygon class="cls-1" points="300 0 300 4.1 297.63 0 300 0"/></svg>