<?xml version="1.0" encoding="utf-8"?>
<!-- Generator: Adobe Illustrator 24.2.0, SVG Export Plug-In . SVG Version: 6.00 Build 0)  -->
<svg version="1.1" id="Layer_1" xmlns="http://www.w3.org/2000/svg" xmlns:xlink="http://www.w3.org/1999/xlink" x="0px" y="0px"
	 viewBox="0 0 388.3 105" style="enable-background:new 0 0 388.3 105;" xml:space="preserve">
<style type="text/css">
	.st0{fill:#FFFFFF;}
</style>
<path class="st0" d="M83.4,45.5H53.1c-0.8,0-1.4,0.6-1.4,1.4v14.8c0,0.8,0.6,1.4,1.4,1.4H65v18.4c0,0-2.7,0.9-10,0.9
	c-8.6,0-20.7-3.2-20.7-29.7c0-26.6,12.6-30.1,24.4-30.1c10.2,0,14.6,1.8,17.4,2.7c0.9,0.3,1.7-0.6,1.7-1.4l3.4-14.3
	c0-0.4-0.1-0.8-0.5-1.1C79.5,7.7,72.5,3.8,55,3.8C34.8,3.8,14,12.4,14,53.7c0,41.3,23.7,47.5,43.7,47.5c16.6,0,26.6-7.1,26.6-7.1
	c0.4-0.2,0.5-0.8,0.5-1.1V46.9C84.8,46.1,84.2,45.5,83.4,45.5z"/>
<path class="st0" d="M239.4,8.7c0-0.8-0.6-1.4-1.4-1.4h-17c-0.8,0-1.4,0.6-1.4,1.4c0,0,0,32.9,0,32.9H193V8.7c0-0.8-0.6-1.4-1.4-1.4
	h-17c-0.8,0-1.4,0.6-1.4,1.4v89.2c0,0.8,0.6,1.4,1.4,1.4h17c0.8,0,1.4-0.6,1.4-1.4V59.8h26.6c0,0,0,38.1,0,38.1
	c0,0.8,0.6,1.4,1.4,1.4H238c0.8,0,1.4-0.6,1.4-1.4V8.7z"/>
<g>
	<g>
		<path class="st0" d="M115.6,20.5c0-6.1-4.9-11.1-11-11.1c-6.1,0-11,5-11,11.1c0,6.1,4.9,11.1,11,11.1
			C110.7,31.6,115.6,26.6,115.6,20.5z"/>
		<path class="st0" d="M114.4,79.1c0-2.3,0-41.2,0-41.2c0-0.8-0.6-1.4-1.4-1.4H96c-0.8,0-1.5,0.8-1.5,1.6c0,0,0,49.5,0,59
			c0,1.7,1.1,2.2,2.5,2.2c0,0,7.3,0,15.3,0c1.7,0,2.1-0.8,2.1-2.3C114.4,93.9,114.4,81.5,114.4,79.1z"/>
	</g>
</g>
<path class="st0" d="M304.2,36.7h-16.9c-0.8,0-1.4,0.6-1.4,1.4v43.7c0,0-4.3,3.1-10.4,3.1c-6.1,0-7.7-2.8-7.7-8.7c0-6,0-38.1,0-38.1
	c0-0.8-0.6-1.4-1.4-1.4h-17.2c-0.8,0-1.4,0.6-1.4,1.4c0,0,0,23.3,0,41c0,17.7,9.9,22.1,23.5,22.1c11.2,0,20.1-6.2,20.1-6.2
	s0.4,3.2,0.6,3.6c0.2,0.4,0.7,0.8,1.2,0.8l10.9,0c0.8,0,1.4-0.6,1.4-1.4l0-59.9C305.6,37.3,304.9,36.7,304.2,36.7z"/>
<path class="st0" d="M350.4,34.7c-9.6,0-16.1,4.3-16.1,4.3V8.7c0-0.8-0.6-1.4-1.4-1.4h-17.1c-0.8,0-1.4,0.6-1.4,1.4v89.2
	c0,0.8,0.6,1.4,1.4,1.4c0,0,11.9,0,11.9,0c0.5,0,0.9-0.3,1.2-0.8c0.3-0.5,0.7-4.1,0.7-4.1s7,6.6,20.2,6.6c15.5,0,24.4-7.9,24.4-35.4
	C374.2,38.3,360,34.7,350.4,34.7z M343.7,84.9c-5.9-0.2-9.8-2.8-9.8-2.8V53.8c0,0,3.9-2.4,8.7-2.8c6.1-0.5,12,1.3,12,15.8
	C354.6,82.1,351.9,85.2,343.7,84.9z"/>
<path class="st0" d="M163.3,36.5h-12.8c0,0,0-16.9,0-16.9c0-0.6-0.3-1-1.1-1H132c-0.7,0-1,0.3-1,0.9v17.5c0,0-8.7,2.1-9.3,2.3
	c-0.6,0.2-1,0.7-1,1.4v11c0,0.8,0.6,1.4,1.4,1.4h8.9c0,0,0,11.5,0,26.4c0,19.6,13.7,21.5,23,21.5c4.2,0,9.3-1.4,10.1-1.7
	c0.5-0.2,0.8-0.7,0.8-1.3l0-12.1c0-0.8-0.7-1.4-1.4-1.4c-0.7,0-2.7,0.3-4.6,0.3c-6.3,0-8.4-2.9-8.4-6.7c0-3.8,0-25.1,0-25.1h12.8
	c0.8,0,1.4-0.6,1.4-1.4V37.9C164.7,37.2,164.1,36.5,163.3,36.5z"/>
</svg>
