<svg id="Layer_1" data-name="Layer 1" xmlns="http://www.w3.org/2000/svg" viewBox="0 0 91.1 90.9"><defs></defs><path class="logo1" d="M85,0l1.1.3a6.59,6.59,0,0,1,5,6.6V84.3a6.45,6.45,0,0,1-5.2,6.5,5.28,5.28,0,0,1-1.3.1H6.4A6.42,6.42,0,0,1,0,84.6V6.9A6.59,6.59,0,0,1,4.9.3L6.2,0ZM48.6,39.7V35.1c0-.7-.2-1-1-1H36.4c-.8,0-1,.2-1,1V76.7c0,.8.3,1.1,1.1,1.1H48c1.1,0,1.1,0,1.1-1.1V56a31.08,31.08,0,0,1,.3-4.3c.6-3.8,2.7-6.7,7.7-6.6,3.6.1,5.8,1.8,6.4,5.3a37.85,37.85,0,0,1,.5,5.8c.1,6.8,0,13.6,0,20.4,0,.9.2,1.1,1.1,1.1H76.6c.8,0,1.1-.2,1.1-1.1,0-8.4.1-16.9-.1-25.3a35.62,35.62,0,0,0-1-7.9c-1.1-4.7-3.9-8.2-8.8-9.6A37,37,0,0,0,63,33a15.68,15.68,0,0,0-7.7,1A18.27,18.27,0,0,0,48.6,39.7ZM27.1,55.9V35.1c0-.8-.2-1-1-1H14.4c-.9,0-1.1.2-1.1,1.1V76.7c0,.9.3,1.1,1.1,1.1H25.9c1.1,0,1.1,0,1.1-1.2C27.1,69.7,27.1,62.8,27.1,55.9Zm1.1-35.5a7.9,7.9,0,1,0-7.9,7.9A7.85,7.85,0,0,0,28.2,20.4Z"/></svg>