<?xml version="1.0" encoding="utf-8"?>
<svg version="1.1" id="Layer_1" xmlns="http://www.w3.org/2000/svg" xmlns:xlink="http://www.w3.org/1999/xlink" x="0px" y="0px" viewBox="0 0 400 97.6">
      <path
        className="logo1"
        d="M365.3,2.8c0.4,0.1,0.7,0.2,1.1,0.3c3,0.8,5,3.3,5,6.6c0,19.8,0,39.6,0,59.4c0,6,0,12,0,18c0,3.2-2,5.8-5.2,6.5
        c-0.4,0.1-0.8,0.1-1.3,0.1c-26.1,0-52.1,0-78.2,0c-3.5,0-6.3-2.8-6.4-6.3c0-0.2,0-0.3,0-0.5c0-25.7,0-51.5,0-77.2
        c0-3.2,1.9-5.8,4.9-6.6c0.4-0.1,0.9-0.2,1.3-0.3C312.9,2.8,339.1,2.8,365.3,2.8z M328.9,42.5c0-1.5,0-3.1,0-4.6c0-0.7-0.2-1-1-1
        c-3.7,0-7.5,0-11.2,0c-0.8,0-1,0.2-1,1c0,13.9,0,27.7,0,41.6c0,0.8,0.3,1.1,1.1,1.1c3.8,0,7.7,0,11.5,0c1.1,0,1.1,0,1.1-1.1
        c0-6.9,0-13.8,0-20.7c0-1.4,0.1-2.9,0.3-4.3c0.6-3.8,2.7-6.7,7.7-6.6c3.6,0.1,5.8,1.8,6.4,5.3c0.3,1.9,0.5,3.9,0.5,5.8
        c0.1,6.8,0,13.6,0,20.4c0,0.9,0.2,1.1,1.1,1.1c3.8,0,7.7,0,11.5,0c0.8,0,1.1-0.2,1.1-1.1c0-8.4,0.1-16.9-0.1-25.3
        c0-2.6-0.4-5.3-1-7.9c-1.1-4.7-3.9-8.2-8.8-9.6c-1.5-0.4-3.2-0.6-4.8-0.8c-2.6-0.3-5.2,0-7.7,1C333,38.1,330.7,40,328.9,42.5z
        M307.4,58.7c0-6.9,0-13.9,0-20.8c0-0.8-0.2-1-1-1c-3.9,0-7.8,0-11.7,0c-0.9,0-1.1,0.2-1.1,1.1c0,13.8,0,27.7,0,41.5
        c0,0.9,0.3,1.1,1.1,1.1c3.8,0,7.7,0,11.5,0c1.1,0,1.1,0,1.1-1.2C307.4,72.5,307.4,65.6,307.4,58.7z M308.5,23.2
        c0-4.4-3.5-7.9-7.9-7.9s-7.9,3.5-7.9,7.9c0,4.3,3.5,7.9,7.9,7.9S308.5,27.6,308.5,23.2z"
      />
      <path
        className="logo1"
        d="M254.2,74.6c-0.2,0.2-0.4,0.4-0.6,0.7c-3.5,4.1-7.9,6.2-13.3,6.1c-5.8-0.1-10.9-1.9-15-6.1
        c-3-3.1-4.8-6.9-5.5-11.1c-1-5.8-0.5-11.4,2-16.8c2.7-5.7,6.9-9.8,13.2-11.2c4.6-1,9.2-0.6,13.5,1.4c1.6,0.8,3,1.9,4.1,3.2
        c0.2,0.2,0.3,0.4,0.7,0.7c0-0.5,0.1-0.8,0.1-1.2c0-7.7,0-15.3,0-23c0-0.8,0.2-1,1-1c3.8,0,7.5,0,11.3,0c0.8,0,1.1,0.2,1.1,1
        c0,20.6,0,41.3,0,61.9c0,0.7-0.2,1-0.9,1c-3.5,0-6.9,0-10.4,0c-0.7,0-0.9-0.2-0.9-0.9c0-1.3,0-2.6,0-3.8c0-0.3,0-0.6,0-0.9
        C254.3,74.7,254.3,74.6,254.2,74.6z M243.6,69.7c0.6-0.1,1.3-0.1,1.9-0.2c2.6-0.4,4.8-1.4,6.5-3.5c1.5-1.9,2.2-4.1,2.4-6.4
        c0.2-3.6-0.5-6.9-3.3-9.5c-1.8-1.8-4.1-2.5-6.6-2.7c-3.3-0.2-6.4,0.5-8.8,3c-2.8,2.9-3.5,6.5-2.9,10.3
        C233.7,66.4,237.8,69.7,243.6,69.7z"
      />
      <path
        className="logo1"
        d="M141.4,59c0,0.3,0,0.7,0,1c0,6.5,0,12.9,0,19.4c0,0.7-0.2,1-0.9,1c-3.8,0-7.7,0-11.5,0c-0.7,0-0.9-0.2-0.9-0.9
        c0-20.7,0-41.4,0-62.1c0-0.8,0.2-1,1-0.9c3.8,0,7.6,0,11.4,0c0.8,0,1,0.3,1,1c0,12,0,23.9,0,35.9c0,0.4,0,0.7,0,1.4
        c0.5-0.5,0.8-0.7,1-1c4.6-5.3,9.2-10.6,13.7-15.9c0.4-0.5,0.9-0.7,1.6-0.7c4.8,0,9.5,0,14.3,0c0.3,0,0.6,0,1,0
        c-0.2,0.3-0.3,0.5-0.4,0.6c-5.5,6.2-11,12.5-16.5,18.7c-0.5,0.5-0.4,0.9,0,1.4c5.4,7.2,10.7,14.4,16,21.6c0.2,0.3,0.4,0.5,0.6,0.9
        c-0.4,0-0.7,0-1,0c-4.9,0-9.9,0-14.8,0c-0.7,0-1.1-0.2-1.4-0.8c-4.4-6.6-8.8-13.3-13.3-19.9c-0.2-0.3-0.4-0.5-0.6-0.8
        C141.6,58.9,141.5,59,141.4,59z"
      />
      <path
        className="logo1"
        d="M203.9,66.1c3.1,2.3,6.1,4.5,9.4,6.9c-1.3,1.2-2.4,2.4-3.7,3.4c-4,3.2-8.6,4.9-13.8,5
        c-7.1,0.2-13.4-1.7-18.6-6.6c-3.6-3.5-5.7-7.8-6.3-12.7c-0.6-4.5-0.2-8.9,1.7-13c3-6.6,8.3-10.6,15.3-12.4c4.6-1.2,9.3-1.3,13.9,0.2
        c6.4,2.1,10.2,6.6,12.2,12.8c0.8,2.4,1.2,4.8,1.2,7.3c0,1.6,0,3.2,0.1,4.8c0.1,0.8-0.2,1-1.1,1c-9.7,0-19.3,0-29,0
        c-0.4,0-0.8,0-1.2,0.1c-0.2,2,2,6.1,5.7,7.7C193.8,72.3,200.1,71.5,203.9,66.1z M184,53.7c0.5,0,0.8,0,1.1,0c3.6,0,7.2,0,10.8,0
        c1.8,0,3.5,0,5.3,0c0.5,0,0.9-0.2,0.7-0.8c-0.3-1.2-0.5-2.6-1.2-3.7c-3-5.2-11-5.5-14.8-0.7C184.8,50.1,184.1,51.7,184,53.7z"
      />
      <path
        className="logo1"
        d="M91.9,43.1c0.3-0.3,0.5-0.5,0.6-0.6c3-4.5,7.3-6.6,12.7-6.5c2.9,0.1,5.7,0.4,8.3,1.7c3.5,1.8,5.4,4.8,6.4,8.5
        c0.8,3,1.1,6.1,1.1,9.2c0,8,0,15.9,0,23.9c0,1.1,0,1.1-1.1,1.1c-3.7,0-7.3,0-11,0c-1.2,0-1.2,0-1.2-1.1c0-6.9,0-13.8,0-20.7
        c0-1.9-0.2-3.9-0.6-5.8c-0.9-4.1-4-5.4-7.8-5c-4.7,0.5-6.1,3.7-6.6,6.9c-0.3,1.7-0.3,3.4-0.3,5.2c0,6.5,0,13,0,19.5c0,0.8-0.2,1-1,1
        c-3.8,0-7.6,0-11.4,0c-0.7,0-0.9-0.2-0.9-0.9c0-13.8,0-27.7,0-41.5c0-0.7,0.2-0.9,0.8-0.9c3.7,0,7.4,0,11.2,0c0.6,0,0.9,0.2,0.8,0.8
        c0,1.4,0,2.8,0,4.2C91.9,42.3,91.9,42.6,91.9,43.1z"
      />
      <path
        className="logo1"
        d="M11.7,48.4c0-10.3,0-20.6,0-30.9c0-1.1,0-1.1,1.1-1.1c3.9,0,7.8,0,11.7,0c0.9,0,1.1,0.2,1.1,1.1
        c0,16.2,0,32.5,0,48.7c0,1.3,0,1.3,1.3,1.3c7.9,0,15.8,0,23.8,0c0.8,0,1.1,0.2,1,1c0,3.6,0,7.3,0,10.9c0,0.7-0.2,0.9-0.9,0.9
        c-12.7,0-25.4,0-38.1,0c-0.8,0-0.9-0.3-0.9-1C11.8,69,11.7,58.7,11.7,48.4z"
      />
      <path
        className="logo1"
        d="M71.4,58.7c0,6.9,0,13.8,0,20.7c0,0.7-0.2,1-0.9,1c-3.8,0-7.7,0-11.5,0c-0.8,0-0.9-0.2-0.9-1
        c0-13.8,0-27.5,0-41.3c0-0.8,0.2-1,1-1c3.8,0,7.6,0,11.4,0c0.8,0,1,0.3,1,1C71.4,44.9,71.4,51.8,71.4,58.7z"
      />
      <path
        className="logo1"
        d="M72.5,23.2c0.2,3.5-2.6,7.8-7.7,7.8s-7.7-4.2-7.7-7.7c0-4.3,3.4-7.8,7.8-7.7C69.1,15.5,72.5,18.9,72.5,23.2z"
      />
    </svg>