<?xml version="1.0" encoding="utf-8"?>
<!-- Generator: Adobe Illustrator 24.1.1, SVG Export Plug-In . SVG Version: 6.00 Build 0)  -->
<svg version="1.1" id="Layer_1" xmlns="http://www.w3.org/2000/svg" xmlns:xlink="http://www.w3.org/1999/xlink" x="0px" y="0px"
	 viewBox="0 0 98.1 25" style="enable-background:new 0 0 98.1 25;" xml:space="preserve">
<style type="text/css">
	.st0{fill:#FFFFFF;}
	.st1{fill:#2967B2;}
</style>
<g>
	<rect x="74" y="1.8" class="st0" width="22.8" height="21.1"/>
	<path id="_x3C_icon_x3E_" class="st1" d="M96.6,0c0.3,0.1,0.6,0.2,0.8,0.4c0.5,0.4,0.7,0.9,0.7,1.5c0,4,0,8,0,12c0,3,0,6,0,8.9
		c0,0.6-0.2,1.2-0.7,1.6c-0.3,0.3-0.7,0.4-1.2,0.4c-6.2,0-12.4,0-18.5,0c-0.9,0-1.7,0-2.6,0c-1,0-1.8-0.8-1.8-1.8c0-0.1,0-0.2,0-0.3
		c0-6.9,0-13.7,0-20.6c0-1.1,0.3-1.9,1.6-2.2C82,0,89.3,0,96.6,0z M94.4,21.1c0-0.1,0-0.1,0-0.2c0-2.2,0-4.5,0-6.7
		c0-0.8-0.1-1.6-0.3-2.4c-0.3-1.2-1-2.1-2.2-2.6c-0.6-0.2-1.2-0.3-1.8-0.3c-1.5,0-2.6,0.5-3.5,1.7c0,0.1-0.1,0.1-0.1,0.2
		c0,0,0,0-0.1,0c0-0.5,0-1.1,0-1.6c-1.2,0-2.3,0-3.5,0c0,3.9,0,7.9,0,11.8c1.2,0,2.4,0,3.6,0c0-0.1,0-0.2,0-0.3c0-1.8,0-3.7,0-5.5
		c0-0.4,0-0.7,0.1-1.1c0.1-1.2,0.7-1.9,1.9-2c1.1-0.1,1.8,0.3,2.1,1.5c0.1,0.4,0.1,0.7,0.1,1.1c0,2,0,4,0,6c0,0.1,0,0.2,0,0.3
		C91.9,21.1,93.1,21.1,94.4,21.1z M80.5,21.1c0-4,0-7.9,0-11.8c-1.2,0-2.4,0-3.6,0c0,3.9,0,7.9,0,11.8
		C78.1,21.1,79.3,21.1,80.5,21.1z M80.9,5.5c0-1.2-1-2.1-2.2-2.1s-2.1,1-2.1,2.1c0,1.2,1,2.1,2.1,2.1C79.9,7.7,80.9,6.7,80.9,5.5z"
		/>
	<g id="_x3C_Linked_x3E_">
		<path class="st1" d="M66.1,21.1c0-0.5,0-1,0-1.5c-0.2,0.2-0.5,0.5-0.8,0.7c-1.1,0.9-2.3,1.2-3.7,1.1c-1.4-0.2-2.6-0.7-3.6-1.7
			c-0.8-0.9-1.3-1.9-1.5-3.1c-0.3-1.8-0.1-3.5,0.9-5.1c0.8-1.4,2.1-2.4,3.8-2.6c1.3-0.2,2.6,0,3.7,0.8c0.3,0.2,0.5,0.5,0.8,0.7
			c0-2.2,0-4.5,0-6.8c1.2,0,2.5,0,3.7,0c0,5.8,0,11.6,0,17.5C68.4,21.1,67.3,21.1,66.1,21.1z M66.1,15.3c0-1-0.3-1.8-0.8-2.3
			c-0.9-0.9-2.5-1.2-3.7-0.5c-0.8,0.4-1.2,1-1.4,1.9c-0.2,1-0.1,2,0.6,2.9c0.9,1.1,2.8,1.3,4,0.5C65.8,17.1,66.1,16.2,66.1,15.3z"/>
		<path class="st1" d="M44,21.2c-0.6,0-1.1,0-1.6,0c-0.9,0-1.8,0-2.8,0c-0.2,0-0.3-0.1-0.4-0.2c-1.2-1.8-2.4-3.6-3.6-5.4
			c0-0.1-0.1-0.1-0.2-0.2c0,1.9,0,3.9,0,5.8c-1.2,0-2.5,0-3.7,0c0-5.8,0-11.6,0-17.5c1.2,0,2.4,0,3.7,0c0,3.5,0,6.9,0,10.4
			c0.4-0.4,0.7-0.8,1-1.2c1-1.2,2-2.3,3-3.5c0.1-0.1,0.2-0.1,0.2-0.1c1.4,0,2.9,0,4.3,0c0,0,0,0,0.1,0c-1.6,1.8-3.2,3.6-4.8,5.5
			C40.8,16.9,42.4,19,44,21.2z"/>
		<path class="st1" d="M55.5,16.4c-2.9,0-5.7,0-8.5,0c0.2,1,0.8,1.8,1.7,2.1c1.5,0.5,2.7,0,3.7-1.2c0.8,0.6,1.7,1.2,2.6,1.9
			c-0.1,0.1-0.1,0.1-0.1,0.2c-1.5,1.6-3.3,2.3-5.5,2.2c-1.5-0.1-2.8-0.6-3.9-1.5c-1.2-1-1.9-2.4-2.1-4c-0.1-1.4,0.1-2.7,0.8-3.9
			c1-1.6,2.4-2.6,4.3-2.9C49.8,9,51,9.1,52.2,9.5c1.5,0.6,2.5,1.7,3,3.2C55.5,13.8,55.5,15,55.5,16.4z M51.8,13.8
			c0-0.5-0.1-1-0.4-1.4c-1.1-1.4-3.5-1.1-4.2,0.6c-0.1,0.2-0.1,0.5-0.2,0.7C48.6,13.8,50.2,13.8,51.8,13.8z"/>
		<path class="st1" d="M22,21.1c-1.2,0-2.5,0-3.7,0c0-3.9,0-7.9,0-11.8c1.2,0,2.3,0,3.5,0c0,0.5,0,1,0,1.6l0,0
			c0.1-0.2,0.2-0.3,0.4-0.5c1-1.1,2.2-1.5,3.6-1.4c0.7,0.1,1.3,0.2,1.9,0.5c0.9,0.5,1.4,1.3,1.7,2.3c0.2,0.8,0.3,1.6,0.3,2.4
			c0,2.3,0,4.5,0,6.8c0,0,0,0.1,0,0.2c-1.2,0-2.4,0-3.7,0c0-0.1,0-0.2,0-0.3c0-2.1,0-4.1,0-6.2c0-0.4-0.1-0.9-0.2-1.3
			c-0.3-1-1-1.2-1.8-1.2c-0.6,0-1.2,0.2-1.6,0.7c-0.3,0.4-0.4,0.8-0.5,1.3c0,0.4-0.1,0.7-0.1,1.1c0,1.8,0,3.7,0,5.5
			C22,21,22,21,22,21.1z"/>
		<path class="st1" d="M0,21.2C0,15.4,0,9.6,0,3.7c1.3,0,2.5,0,3.8,0c0,4.6,0,9.3,0,13.9c2.4,0,4.7,0,7.1,0c0,1.2,0,2.4,0,3.5
			C7.3,21.2,3.6,21.2,0,21.2z"/>
		<path class="st1" d="M12.6,9.3c1.2,0,2.4,0,3.7,0c0,3.9,0,7.9,0,11.8c-1.2,0-2.4,0-3.7,0C12.6,17.2,12.6,13.3,12.6,9.3z"/>
		<path class="st1" d="M14.5,3.4c1.2,0,2.1,1,2.1,2.2s-1,2.1-2.2,2.1s-2.1-1-2.1-2.2C12.3,4.3,13.3,3.4,14.5,3.4z"/>
	</g>
	<g id="_x3C_Reserved_x3E_">
		<path class="st1" d="M99.2,23.3c0-1,0.8-1.7,1.7-1.7c1,0,1.7,0.8,1.7,1.7c0,1-0.8,1.7-1.7,1.7C99.9,25,99.2,24.2,99.2,23.3z
			 M100.9,24.8c0.8,0,1.5-0.7,1.5-1.5s-0.7-1.5-1.5-1.5s-1.5,0.7-1.5,1.5C99.4,24.1,100.1,24.8,100.9,24.8z"/>
		<path class="st1" d="M100.3,22.4c0.3,0,0.6,0,0.9,0s0.4,0.2,0.4,0.5s-0.1,0.4-0.4,0.5c0,0,0,0-0.1,0c0.2,0.3,0.3,0.5,0.5,0.8
			c-0.2,0.1-0.3,0-0.4-0.1c-0.1-0.1-0.2-0.3-0.3-0.4c-0.1-0.2-0.2-0.2-0.4-0.2c0,0.2,0,0.5,0,0.7c-0.1,0-0.2,0-0.3,0
			C100.3,23.6,100.3,23,100.3,22.4z M100.6,23.2c0.2,0,0.4,0,0.5,0c0.2,0,0.2-0.1,0.2-0.3c0-0.2-0.1-0.2-0.2-0.3c-0.2,0-0.4,0-0.5,0
			C100.6,22.8,100.6,23,100.6,23.2z"/>
	</g>
</g>
</svg>
