<?xml version="1.0" encoding="utf-8"?>
<!-- Generator: Adobe Illustrator 24.2.0, SVG Export Plug-In . SVG Version: 6.00 Build 0)  -->
<svg version="1.1" id="Layer_1" xmlns="http://www.w3.org/2000/svg" xmlns:xlink="http://www.w3.org/1999/xlink" x="0px" y="0px"
	 viewBox="0 0 100 171.2" style="enable-background:new 0 0 100 171.2;" xml:space="preserve">
<g>
	<path d="M28.8,0v171.2l71.2-14.4V15.3L28.8,0z M46.2,88.6c-0.5,0-1,0-1.5,0c-0.9,1.5-2.5,2.6-4.4,2.6c-2.8,0-5.1-2.3-5.1-5.1
		c0-2.8,2.3-5.1,5.1-5.1c1.9,0,3.5,1,4.4,2.6c0.5,0,1,0,1.5,0c6.1,0,11,1.1,11,2.5C57.2,87.4,52.3,88.6,46.2,88.6z"/>
	<polygon points="0,15.3 0,156.8 10.2,156.8 23.7,156.8 23.7,146.6 10.2,146.6 10.2,24.6 23.7,24.6 23.7,15.3 10.2,15.3 	"/>
</g>
</svg>
