<?xml version="1.0" encoding="utf-8"?>
<!-- Generator: Adobe Illustrator 24.2.0, SVG Export Plug-In . SVG Version: 6.00 Build 0)  -->
<svg version="1.1" id="Layer_1" xmlns="http://www.w3.org/2000/svg" xmlns:xlink="http://www.w3.org/1999/xlink" x="0px" y="0px"
	 viewBox="0 0 50.5 87.5" style="enable-background:new 0 0 50.5 87.5;" xml:space="preserve">
<polygon points="49.2,57.5 25.2,71.3 1.3,57.5 1.3,30 25.3,16.3 49.3,30 "/>
<polygon points="74.2,14.4 50.2,28.1 26.3,14.3 26.3,-13.2 50.3,-26.9 74.3,-13.1 "/>
<polygon points="24.2,14.3 0.2,28.1 -23.7,14.3 -23.7,-13.2 0.3,-26.9 24.3,-13.2 "/>
<polygon points="24.2,100.7 0.2,114.4 -23.8,100.6 -23.7,73.1 0.3,59.4 24.2,73.2 "/>
<polygon points="74.2,100.7 50.2,114.4 26.2,100.7 26.3,73.2 50.3,59.4 74.2,73.2 "/>
</svg>
