<?xml version="1.0" encoding="utf-8"?>
<!-- Generator: Adobe Illustrator 24.2.0, SVG Export Plug-In . SVG Version: 6.00 Build 0)  -->
<svg version="1.1" id="Layer_1" xmlns="http://www.w3.org/2000/svg" xmlns:xlink="http://www.w3.org/1999/xlink" x="0px" y="0px"
	 viewBox="0 0 50.3 87.5" style="enable-background:new 0 0 50.3 87.5;" xml:space="preserve">
<style type="text/css">
	.st0{fill:#666666;}
	.st1{fill:#666666;stroke:#000000;stroke-width:2;stroke-miterlimit:10;}
	.st2{fill:none;stroke:#000000;stroke-width:2;stroke-miterlimit:10;}
	.st3{opacity:0.5;}
	.st4{opacity:0.4;}
	.st5{opacity:0.32;fill:#F2F2F2;}
	.st6{opacity:0.18;}
	.st7{opacity:0.2;}
	.st8{opacity:0.3;}
	.st9{opacity:0.13;}
</style>
<polygon class="st0" points="24.1,101.5 -0.9,115.8 -25.9,101.4 -25.8,72.5 -0.8,58.2 24.1,72.6 "/>
<polygon class="st0" points="24.2,14.4 -0.8,28.8 -25.7,14.3 -25.7,-14.5 -0.7,-28.9 24.3,-14.5 "/>
<polygon class="st0" points="75.5,101.8 50.5,116.2 25.5,101.7 25.6,72.9 50.6,58.5 75.5,73 "/>
<polygon class="st0" points="75.2,14.5 50.2,28.8 25.3,14.4 25.3,-14.5 50.3,-28.8 75.3,-14.4 "/>
<polygon class="st1" points="50.1,58.2 25.1,72.6 0.1,58.1 0.2,29.3 25.2,14.9 50.1,29.4 "/>
<line class="st2" x1="24.9" y1="14.8" x2="24.9" y2="-6.2"/>
<line class="st2" x1="24.9" y1="72.8" x2="24.9" y2="93.8"/>
<line class="st3" x1="1.9" y1="56.8" x2="25.9" y2="70.8"/>
<polygon class="st4" points="25.1,71.5 1.1,57.6 2.8,56.3 25.1,69.3 "/>
<polygon class="st4" points="50.3,28.3 25.9,14.2 27.8,13 50.2,26.1 "/>
<polygon class="st5" points="1.1,57.4 1.2,29.7 3,30.3 2.9,56.2 "/>
<polygon class="st6" points="1.1,29.9 25.1,16.1 25.1,18.2 3,30.8 "/>
<polygon class="st6" points="25.9,73.2 50.2,59.3 50.2,61.2 27.6,73.8 "/>
<polygon class="st5" points="25.9,14.2 26,-13.5 27.7,-13 27.7,13 "/>
<polygon class="st5" points="25.8,101 25.9,73.3 27.6,73.8 27.6,99.8 "/>
<polygon class="st7" points="49.2,57.6 25.1,71.3 25.1,69.3 47.2,56.6 "/>
<polygon class="st7" points="24.1,14.5 0,28.3 0,26.2 22.1,13.6 "/>
<polygon class="st8" points="25.1,16 49.2,29.9 47.4,31.2 25.2,18.2 "/>
<polygon class="st8" points="-0.2,59.2 23.9,73.1 22.1,74.4 -0.2,61.3 "/>
<polygon class="st9" points="49.2,29.9 49.1,57.5 47.3,56.6 47.4,31.2 "/>
<polygon class="st9" points="24,-13.2 23.8,14.4 22.1,13.5 22.2,-11.9 "/>
<polygon class="st9" points="23.8,73.1 23.7,100.6 21.9,99.8 22.1,74.4 "/>
</svg>
