<?xml version="1.0" encoding="utf-8"?>
<!-- Generator: Adobe Illustrator 24.2.0, SVG Export Plug-In . SVG Version: 6.00 Build 0)  -->
<svg version="1.1" id="Layer_1" xmlns="http://www.w3.org/2000/svg" xmlns:xlink="http://www.w3.org/1999/xlink" x="0px" y="0px"
	 viewBox="0 0 50.5 87.5" style="enable-background:new 0 0 50.5 87.5;" xml:space="preserve">
<style type="text/css">
	.st0{fill:#4D4D4D;stroke:#000000;stroke-width:2;stroke-miterlimit:10;}
	.st1{fill:#4C4C4C;}
	.st2{fill:#4B4B4B;}
	.st3{fill:none;stroke:#000000;stroke-width:2.4;stroke-miterlimit:10;}
	.st4{opacity:0.5;}
	.st5{opacity:0.4;}
	.st6{opacity:0.32;fill:#F2F2F2;}
	.st7{opacity:0.18;}
	.st8{opacity:0.2;}
	.st9{opacity:0.3;}
	.st10{opacity:0.13;}
</style>
<polygon class="st0" points="50.2,58.2 25.2,72.6 0.3,58.1 0.3,29.3 25.3,14.9 50.3,29.4 "/>
<polygon class="st1" points="74.4,14.5 50.4,28.2 26.4,14.5 26.5,-13 50.5,-26.8 74.4,-13 "/>
<polygon class="st2" points="24,14.5 0,28.3 -23.9,14.5 -23.9,-13 0.1,-26.7 24.1,-13 "/>
<polygon class="st2" points="74.4,100.6 50.4,114.3 26.4,100.5 26.4,73 50.5,59.2 74.4,73.1 "/>
<polygon class="st1" points="24,100.5 0,114.3 -24,100.5 -23.9,73 0.1,59.1 24,73 "/>
<line class="st3" x1="25.3" y1="14.8" x2="25.3" y2="-6.2"/>
<line class="st3" x1="25.3" y1="72.8" x2="25.3" y2="93.8"/>
<line class="st4" x1="2" y1="56.8" x2="26" y2="70.8"/>
<polygon class="st5" points="25.2,71.4 1.3,57.6 3.1,56.3 25.2,69.3 "/>
<polygon class="st5" points="50.7,28.5 26.4,14.4 28.2,13.2 50.7,26.3 "/>
<polygon class="st6" points="1.3,57.6 1.3,29.9 3.1,30.8 3.1,56.3 "/>
<polygon class="st7" points="1.3,29.9 25.3,16.1 25.3,18.1 3.1,30.8 "/>
<polygon class="st7" points="26.4,73 50.7,59.1 50.7,61 28.1,73.7 "/>
<polygon class="st6" points="26.4,14.4 26.5,-13.3 28.2,-12.7 28.2,13.2 "/>
<polygon class="st6" points="26.5,100.6 26.4,73 28.1,73.7 28.1,99.4 "/>
<polygon class="st8" points="49.2,57.6 25.2,71.5 25.2,69.3 47.4,56.7 "/>
<polygon class="st8" points="24,14.5 -0.2,28.4 -0.2,26.3 22.3,13.6 "/>
<polygon class="st9" points="25.3,16.1 49.2,29.9 47.4,31.2 25.3,18.1 "/>
<polygon class="st9" points="-0.2,59 24.1,73.1 22.2,74.2 -0.2,61.1 "/>
<polygon class="st10" points="49.2,29.9 49.2,57.6 47.4,56.7 47.4,31.2 "/>
<polygon class="st10" points="24.2,-13.1 24,14.5 22.3,13.6 22.3,-11.8 "/>
<polygon class="st10" points="24,73.1 24.1,100.6 22.2,99.7 22.2,74.2 "/>
</svg>
