<?xml version="1.0" encoding="utf-8"?>
<svg version="1.1" id="Layer_1" xmlns="http://www.w3.org/2000/svg" xmlns:xlink="http://www.w3.org/1999/xlink" x="0px" y="0px"
	 viewBox="0 0 112.1 25" style="enable-background:new 0 0 112.1 25;" xml:space="preserve">
<style type="text/css">
	.st2{fill:#FF0000;}
	.st3{fill:#FFFFFF;}
	.st4{fill:#282828;}
</style>
<g>
	<path class="st2" d="M35.1,4c-0.4-1.5-1.6-2.7-3.2-3.2c-2.8-0.7-14-0.7-14-0.7s-11.2,0-14,0.7C2.4,1.2,1.2,2.4,0.7,4
		C0,6.8,0,12.6,0,12.6s0,5.8,0.7,8.6c0.4,1.5,1.6,2.7,3.2,3.2c2.8,0.7,14,0.7,14,0.7s11.2,0,14-0.7c1.5-0.4,2.7-1.6,3.2-3.2
		c0.7-2.8,0.7-8.6,0.7-8.6S35.8,6.8,35.1,4z"/>
	<polygon class="st3" points="14.4,17.9 23.7,12.6 14.4,7.2 	"/>
</g>
<g>
	<g>
		<path class="st4" d="M52,22.8c-0.7-0.5-1.2-1.2-1.5-2.2c-0.3-1-0.4-2.3-0.4-4v-2.3c0-1.7,0.2-3,0.5-4.1c0.3-1,0.9-1.8,1.6-2.2
			c0.7-0.5,1.7-0.7,2.8-0.7c1.2,0,2.1,0.2,2.8,0.7c0.7,0.5,1.2,1.2,1.5,2.2s0.5,2.4,0.5,4v2.3c0,1.7-0.2,3-0.5,4s-0.8,1.8-1.5,2.2
			c-0.7,0.5-1.7,0.7-2.9,0.7C53.6,23.5,52.7,23.3,52,22.8z M55.9,20.4c0.2-0.5,0.3-1.3,0.3-2.5V13c0-1.1-0.1-1.9-0.3-2.5
			c-0.2-0.5-0.5-0.8-1-0.8s-0.8,0.3-1,0.8s-0.3,1.4-0.3,2.5v4.9c0,1.2,0.1,2,0.3,2.5c0.2,0.5,0.5,0.8,1,0.8
			C55.4,21.1,55.7,20.9,55.9,20.4z"/>
		<path class="st4" d="M106.2,16.6v0.8c0,1,0,1.8,0.1,2.3s0.2,0.9,0.4,1.1c0.2,0.2,0.5,0.3,0.9,0.3c0.5,0,0.9-0.2,1.1-0.6
			s0.3-1.1,0.3-2l3,0.2c0,0.1,0,0.3,0,0.6c0,1.4-0.4,2.5-1.2,3.2s-1.9,1.1-3.4,1.1c-1.7,0-3-0.5-3.7-1.6s-1-2.8-1-5.1v-2.7
			c0-2.3,0.4-4.1,1.1-5.1c0.7-1.1,2-1.6,3.7-1.6c1.2,0,2.1,0.2,2.8,0.7c0.6,0.4,1.1,1.1,1.4,2.1c0.3,0.9,0.4,2.2,0.4,3.9v2.7h-5.9
			V16.6z M106.7,10c-0.2,0.2-0.3,0.6-0.4,1.1s-0.1,1.3-0.1,2.3v1.1h2.6v-1.1c0-1,0-1.8-0.1-2.3s-0.2-0.9-0.4-1.1
			c-0.2-0.2-0.5-0.3-0.8-0.3C107.1,9.7,106.8,9.8,106.7,10z"/>
		<path class="st4" d="M43.4,16.3l-4-14.5h3.5l1.4,6.6c0.4,1.6,0.6,3,0.8,4.1h0.1c0.1-0.8,0.4-2.2,0.8-4.1l1.5-6.6H51l-4.1,14.5v6.9
			h-3.5V16.3z"/>
		<path class="st4" d="M71.1,7.6v15.7h-2.8L68,21.4h-0.1c-0.7,1.4-1.9,2.2-3.4,2.2c-1,0-1.8-0.3-2.3-1s-0.7-1.7-0.7-3.2V7.6H65v11.5
			c0,0.7,0.1,1.2,0.2,1.5c0.2,0.3,0.4,0.4,0.8,0.4c0.3,0,0.6-0.1,0.9-0.3c0.3-0.2,0.5-0.4,0.6-0.7V7.6H71.1z"/>
		<path class="st4" d="M89.2,7.6v15.7h-2.8l-0.3-1.9H86c-0.7,1.4-1.9,2.2-3.4,2.2c-1,0-1.8-0.3-2.3-1s-0.7-1.7-0.7-3.2V7.6h3.5v11.5
			c0,0.7,0.1,1.2,0.2,1.5c0.2,0.3,0.4,0.4,0.8,0.4c0.3,0,0.6-0.1,0.9-0.3c0.3-0.2,0.5-0.4,0.6-0.7V7.6H89.2z"/>
		<path class="st4" d="M80.7,4.7h-3.5v18.6h-3.4V4.7h-3.5V1.8h10.4V4.7z"/>
		<path class="st4" d="M100.9,10.1c-0.2-1-0.6-1.7-1-2.1c-0.5-0.4-1.1-0.7-2-0.7c-0.6,0-1.3,0.2-1.8,0.5c-0.6,0.4-1,0.8-1.3,1.4l0,0
			V1h-3.4v22.2h2.9l0.4-1.5h0.1c0.3,0.5,0.7,0.9,1.2,1.3c0.5,0.3,1.1,0.5,1.8,0.5c1.2,0,2.1-0.5,2.6-1.6c0.6-1.1,0.8-2.8,0.8-5.1
			v-2.5C101.2,12.5,101.1,11.1,100.9,10.1z M97.7,16.5c0,1.1,0,2-0.1,2.7c-0.1,0.6-0.3,1.1-0.5,1.4S96.6,21,96.2,21
			c-0.3,0-0.6-0.1-0.8-0.2c-0.2-0.1-0.4-0.3-0.6-0.6v-8.9c0.1-0.4,0.3-0.8,0.6-1c0.3-0.3,0.6-0.4,0.9-0.4c0.4,0,0.6,0.1,0.8,0.4
			c0.2,0.3,0.3,0.8,0.4,1.4c0.1,0.7,0.1,1.6,0.1,2.8L97.7,16.5L97.7,16.5z"/>
	</g>
</g>
</svg>
