<?xml version="1.0" encoding="utf-8"?>
<!-- Generator: Adobe Illustrator 24.2.0, SVG Export Plug-In . SVG Version: 6.00 Build 0)  -->
<svg version="1.1" id="Layer_1" xmlns="http://www.w3.org/2000/svg" xmlns:xlink="http://www.w3.org/1999/xlink" x="0px" y="0px"
	 viewBox="0 0 50.3 87.5" style="enable-background:new 0 0 50.3 87.5;" xml:space="preserve">
<polygon points="49.6,58 25.1,72.3 0.6,58 0.6,29.5 25.1,15.2 49.6,29.5 "/>
<polygon points="75.9,101.6 50.9,116 26,101.6 26,72.8 50.9,58.3 75.9,72.8 "/>
<polygon points="75.9,14.7 50.9,29.1 26,14.7 26,-14.1 50.9,-28.5 75.9,-14.1 "/>
<polygon points="24.3,101.6 -0.7,116 -25.7,101.6 -25.7,72.8 -0.7,58.3 24.3,72.8 "/>
<polygon points="24.2,14.7 -0.8,29.1 -25.8,14.7 -25.8,-14.1 -0.8,-28.5 24.2,-14.1 "/>
</svg>
